<svg width="100" height="15" fill="none" xmlns="http://www.w3.org/2000/svg"><path d="M8.677 14.063h3.91V0h-3.91v5.286H3.91V0H0v14.063h3.91V8.418h4.767v5.645Zm17.598-11.19h-3.93v6.004c0 1.296-.718 2.054-1.855 2.054-1.117 0-1.855-.757-1.855-2.054V2.873h-3.89v6.503c0 2.952 1.616 4.787 4.209 4.787 1.576 0 2.753-.738 3.391-1.696v1.596h3.93V2.873Zm17.465 11.19h3.91V7.54c0-2.932-1.695-4.767-4.528-4.767-1.656 0-2.972.917-3.73 2.054-.739-1.296-2.055-2.054-3.73-2.054-1.517 0-2.614.678-3.252 1.576V2.873H28.5v11.19h3.91V8.06c0-1.217.718-1.895 1.875-1.895 1.117 0 1.835.678 1.835 1.895v6.004h3.91V8.06c0-1.217.718-1.895 1.855-1.895 1.117 0 1.855.678 1.855 1.895v6.004Zm5.414-5.605c0 3.57 2.115 5.745 4.768 5.745 1.576 0 2.713-.698 3.291-1.696v1.556h3.91V2.873h-3.91v1.555c-.578-.997-1.696-1.695-3.291-1.695-2.653 0-4.768 2.154-4.768 5.725Zm8.06 0c0 1.516-.938 2.334-2.036 2.334-1.117 0-2.034-.838-2.034-2.334 0-1.516.917-2.314 2.034-2.314 1.098 0 2.035.818 2.035 2.314Zm5.498 0c0 3.57 2.115 5.745 4.768 5.745 1.576 0 2.713-.698 3.291-1.696v1.556h3.91V2.873h-3.91v1.555c-.578-.997-1.695-1.695-3.29-1.695-2.654 0-4.768 2.154-4.768 5.725Zm8.06 0c0 1.516-.938 2.334-2.035 2.334-1.117 0-2.035-.838-2.035-2.334 0-1.516.918-2.314 2.035-2.314 1.097 0 2.035.818 2.035 2.314Zm13.757 5.605h3.91V7.54c0-2.932-1.615-4.767-4.209-4.767-1.576 0-2.753.738-3.41 1.695V2.873h-3.91v11.19h3.91V8.06c0-1.297.717-2.055 1.874-2.055 1.117 0 1.835.758 1.835 2.055v6.004ZM100 10.772c-.02-4.249-5.984-2.972-5.984-4.568 0-.42.339-.678.977-.678.838 0 1.337.419 1.456 1.117h3.531c-.26-2.215-1.855-3.91-4.907-3.91-3.032 0-4.648 1.616-4.648 3.57 0 4.11 5.945 2.773 5.945 4.41 0 .398-.38.717-1.038.717-.818 0-1.436-.399-1.536-1.137h-3.79c.16 2.234 2.234 3.91 5.346 3.91 2.893 0 4.648-1.476 4.648-3.431Z" fill="#000"/></svg>