<svg width="99" height="37" fill="none" xmlns="http://www.w3.org/2000/svg"><g clip-path="url(#a)"><path d="M.218 6.032c0-3.3 2.64-5.976 5.897-5.976h18.91V8.56c0 1.65-1.32 2.988-2.948 2.988h-7.683c-1.566 0-2.835 1.286-2.835 2.873V32.98c0 1.65-1.32 2.988-2.949 2.988H.218V6.032Z" fill="#001B38"/><path d="M6.81 14.493c0 4.284 3.427 7.757 7.654 7.757 4.228 0 7.655-3.473 7.655-7.757s-3.427-7.757-7.655-7.757c-4.227 0-7.654 3.473-7.654 7.757Z" fill="url(#b)"/><path opacity=".5" d="M6.81 14.493c0 4.284 3.427 7.757 7.654 7.757 4.228 0 7.655-3.473 7.655-7.757s-3.427-7.757-7.655-7.757c-4.227 0-7.654 3.473-7.654 7.757Z" fill="url(#c)"/></g><path d="M54.835 16.388v-2.347h-3.223v13.293h2.174c.579 0 1.05-.473 1.05-1.056v-5.222c0-2.532.811-4.3 2.856-4.3h2.07V14.04h-1.546c-1.703 0-2.725.66-3.38 2.348ZM67.232 13.83c-4.036 0-6.919 2.902-6.919 6.857s2.884 6.857 6.92 6.857c4.01 0 6.892-2.902 6.892-6.857 0-3.956-2.882-6.857-6.893-6.857Zm0 10.92c-2.201 0-3.67-1.663-3.67-4.063 0-2.4 1.469-4.062 3.67-4.062 2.176 0 3.644 1.662 3.644 4.062 0 2.4-1.468 4.062-3.644 4.062ZM83.43 13.83c-1.886 0-3.38.817-4.115 2.268v-2.057h-3.223v13.293h2.174c.58 0 1.05-.473 1.05-1.056v-6.197c0-1.951 1.257-3.376 3.066-3.376 1.651 0 2.752 1.266 2.752 3.087v7.543h2.174c.58 0 1.05-.473 1.05-1.056v-7.174c0-3.113-1.94-5.275-4.927-5.275ZM99 15.702v-1.66h-3.67v-4.01h-3.223v3.138c0 .633-.315.87-.838.87h-1.757v2.717h2.595v5.934c0 2.955 1.888 4.642 4.77 4.642H99v-2.928h-1.757c-1.205 0-1.913-.685-1.913-2.03v-5.618h2.62c.58.001 1.05-.472 1.05-1.055ZM38.69 12.22v15.114h2.41c.58 0 1.05-.473 1.05-1.056V19.58h7.024v-3.007H42.15V12.8c0-.51.41-.923.917-.923h6.788c.58 0 1.05-.473 1.05-1.056v-1.95h-8.886c-1.838 0-3.329 1.5-3.329 3.35Z" fill="#001B38"/><defs><linearGradient id="b" x1="9.074" y1="8.678" x2="20.738" y2="20.269" gradientUnits="userSpaceOnUse"><stop stop-color="#FF0057" stop-opacity=".16"/><stop offset=".861" stop-color="#FF0057"/></linearGradient><linearGradient id="c" x1="9.074" y1="8.678" x2="20.738" y2="20.269" gradientUnits="userSpaceOnUse"><stop stop-color="#FF0057" stop-opacity=".16"/><stop offset=".861" stop-color="#FF0057"/></linearGradient><clipPath id="a"><path fill="#fff" d="M0 0h25.035v36.414H0z"/></clipPath></defs></svg>