<svg width="299" height="135" fill="none" xmlns="http://www.w3.org/2000/svg"><path d="M251 75.4999c3.9 2.1 7.4 3.5 11.4 1.7 4.6-2.1 7.3-7 6.6-11.8-.8-4.9-5.3-8.9-10.4-9.2-5.2-.4-9 2.5-10.6 7.9-.8 2.4-.9 4.9-.9 7.4 0 19.7-.1 39.3001.1 59.0001 0 3.5-.9 4.5-4.4 4.4-7-.3-14-.2-21 0-2.6 0-3.9-.4-3.9-3.5.2-22.2-.3-44.3001.4-66.5001.7-21 16.8-36.3 38.2-37.4 19.7-1.1 38.4 13.5 41.5 32.4 3.5 21.2-8.6 40.9001-28.5 46.6001-1 .3-1.9.5-2.9.7-14.6 2.7-15.4 2.1-15.4-12.4001-.2-6.2-.2-12.4-.2-19.3zM47.4998 59.3998c-10.8-4.2-18.5.5-17.7 10.1.4 4.5 4.3 8.6 9 9.4 5.1.9 9.4-1.4 11.4-6 1.4-3.3 1.6-6.6999 1.6-10.2999 0-19.1.1-38.3-.1-57.40004 0-3.4.8-4.599999 4.4-4.499999 7 .3 14 .2 21 0 2.7-.1 3.8.499999 3.8 3.499999-.1 21.30004.2 42.60004-.1 63.90004-.4 21.5-14.9 36.9001-36.3 39.4001-19.1 2.2-38.00003-10.6002-43.00003-29.1002-7.4-27.5 15.30003-54.3999 42.90003-50.7999 1.8.2 3.2.1999 3.2 2.6999-.1 9.6-.1 19-.1 29.1zM144.8 32.7998c-8 6.6-13.4 14.2001-15.7 23.8001-.5 2-1.4 1.6-2.8 1.5-8.7-.6-11.4 1.9999-11.4 10.7999 0 11-.1 22 0 33.0002 0 3-.5 4.5-4 4.4-7.3-.3-14.7002-.2-22.0002 0-2.6.1-3.5-.7-3.5-3.4.3-14.8002-.6-29.7002.5-44.5002 1.5-19.2 14.9002-31.1999 34.2002-30.8999 8.7.1 17.4 1.8999 24.7 5.2999z" fill="#B21B34"/><path fill-rule="evenodd" clip-rule="evenodd" d="M174.4 27.4998c-23.6-.2-41.4 16.9-41.6 39.8-.1 22.2 17.8 40.3002 40 40.6002 22.6.2 41-17.4002 41.1-39.5002.2-22.9-17.1-40.7-39.5-40.9zm2.4 51.5c4.6-1.4 8.1-6 8.2-10.8.1-4-6.6-14.6-10.7-15.2-2.456-.3877-3.909 1.5207-5.385 3.4595-.809 1.0618-1.624 2.1327-2.615 2.8405-.6.5-1.2 1.2-1.7 1.8-3.2 4-3.4 9.3-.5 13.4 2.8 4.1 8 5.9 12.7 4.5z" fill="#B21B34"/></svg>