<svg width="92" height="37" fill="none" xmlns="http://www.w3.org/2000/svg"><g clip-path="url(#clip0)"><path d="M42.12 28.5601c-.0275.1538-.1071.2935-.2255.3955-.1184.1019-.2683.1601-.4245.1645h-3.18c-.0709.0028-.1415-.0104-.2066-.0388-.065-.0283-.1228-.0711-.169-.1249-.0462-.0539-.0795-.1176-.0976-.1862-.0181-.0686-.0204-.1405-.0068-.2101l1.6-11.27c.0088-.1055-.0064-.2115-.0445-.3103-.0381-.0987-.0981-.1875-.1755-.2597-.0552-.0568-.1194-.1041-.19-.14-.31 0-.82-.06-1.13-.06h-1.68c-.395.0005-.7894.0306-1.18.09l-.39.06c-.1534.0462-.2909.1343-.3969.2545-.106.1201-.1763.2675-.2031.4255l-1.59 11.21c-.0235.1538-.1006.2944-.2177.3968-.1171.1025-.2667.1603-.4223.1632h-3.18c-.0712.0025-.142-.0109-.2074-.0392-.0654-.0283-.1236-.0708-.1706-.1244-.0469-.0536-.0813-.117-.1006-.1856-.0194-.0685-.0233-.1406-.0114-.2108l2-14.46c.0254-.153.1031-.2924.2198-.3946.1167-.1021.2652-.1605.4202-.1654h2.77c.1504.0026.2939.0635.4003.1698.1063.1063.1672.2498.1697.4002v1c.4828-.6232 1.1577-1.0696 1.92-1.27.7573-.1622 1.5265-.2625 2.3-.3h2.04c.5758-.0088 1.1503.0551 1.71.19.3967.0976.7638.2897 1.07.56.2668.2564.4572.5818.55.94.0635.2559.1037.5169.12.78.0083.374-.0084.7482-.05 1.12l-1.64 11.43zM48.81 28.5601c-.0275.1538-.1072.2934-.2255.3954-.1184.102-.2683.1601-.4245.1646H45c-.0709.0028-.1415-.0105-.2066-.0388-.065-.0284-.1228-.0711-.169-.125-.0462-.0539-.0796-.1175-.0977-.1861-.018-.0687-.0203-.1405-.0067-.2101l2-14.46c.0292-.1531.1094-.2917.2274-.3934.118-.1016.2669-.1604.4226-.1666h3.18c.0709-.0029.1415.0104.2066.0387.065.0284.1228.0711.169.125.0462.0539.0796.1175.0977.1862.018.0686.0203.1404.0067.2101l-2.02 14.46zm2.53-18c-.0254.1529-.1031.2924-.2198.3945-.1167.1021-.2652.1606-.4202.1655h-3.18c-.0694.0044-.139-.0061-.2041-.0307-.0651-.0245-.1242-.0627-.1734-.1119-.0492-.0492-.0873-.1083-.1119-.1734-.0246-.065-.035-.1346-.0306-.204l.35-2.52004c.026-.15366.1055-.29318.2244-.39384.119-.10066.2698-.15598.4256-.15616h3.19c.0694-.00075.1381.01356.2014.04194.0633.02837.1198.07014.1654.12241.0456.05228.0794.11383.0989.1804.0195.06658.0244.1366.0143.20525l-.33 2.48004zM63.9999 16c-.0274.1512-.106.2883-.2225.3884-.1165.1002-.2639.1572-.4175.1616h-3.83c-.155.0049-.3035.0633-.4202.1655-.1167.1021-.1944.2415-.2198.3945l-1.13 7.69v.4c.0029.1273.03.2529.08.37.0501.1192.1428.2155.26.27l.13.06h3.68c.0702-.0022.1401.011.2046.0387.0646.0278.1222.0693.169.1218.0467.0524.0813.1145.1015.1818.0201.0673.0252.1382.0149.2077l-.22 1.63c-.8484.4249-1.7603.7086-2.7.84-.6995.0955-1.4041.1489-2.11.16-.545.0044-1.0896-.029-1.63-.1-.4484-.0546-.8807-.201-1.27-.43-.369-.2418-.6552-.5907-.82-1-.1394-.366-.2269-.7497-.26-1.14-.0299-.3727-.0299-.7473 0-1.12l1.2-8.27c.0117-.0694.0081-.1405-.0107-.2083-.0188-.0678-.0523-.1307-.0981-.1841-.0458-.0535-.1028-.0962-.167-.1251-.0641-.029-.1338-.0435-.2042-.0425h-1.51c-.0702.0022-.1401-.011-.2046-.0387-.0646-.0277-.1222-.0693-.169-.1218-.0467-.0524-.0813-.1145-.1015-.1818-.0201-.0673-.0252-.1382-.0149-.2077l.23-1.63c.0236-.1538.1007-.2943.2178-.3968.1171-.1025.2666-.1603.4222-.1632h1.56c.1556-.0029.3051-.0607.4222-.1632.1171-.1024.1943-.243.2178-.3968l.43-3c.0306-.1563.1083-.29954.2228-.41038.1144-.11084.26-.18399.4172-.20961l3.19-.35001c.0673-.01118.1364-.00579.2012.01573.0648.02151.1233.05849.1706.10773.0473.04925.0819.10928.1007.17489.0189.06561.0214.13482.0075.20165l-.49 3.45c-.0119.0702-.008.1423.0113.2108.0194.0686.0538.132.1007.1856.0469.0536.1052.0961.1706.1244.0653.0283.1362.0417.2074.0392h3.83c.0712-.0025.1421.0109.2074.0392.0654.0283.1237.0708.1706.1244.0469.0536.0813.117.1007.1856.0194.0686.0232.1406.0113.2108l-.24 1.74zM76 16.59c-.0257.152-.1038.2902-.2207.3907-.1169.1004-.2652.1568-.4193.1593h-2.32l-1.19.09-1.23.13-.4.05c-.1568.0469-.2977.1361-.407.2579-.1094.1217-.1831.2712-.213.4321l-1.5 10.46c-.0236.1538-.1007.2944-.2178.3969-.1171.1024-.2667.1602-.4222.1631h-3.18c-.0712.0025-.1421-.0109-.2075-.0392-.0654-.0283-.1236-.0708-.1705-.1244-.0469-.0536-.0813-.117-.1007-.1855-.0194-.0686-.0233-.1406-.0113-.2109l2-14.46c.0254-.1529.103-.2924.2197-.3945.1167-.1021.2653-.1606.4203-.1655h2.77c.1503.0026.2938.0635.4002.1698.1063.1064.1672.2499.1698.4002v1.24c.6162-.4895 1.2874-.9056 2-1.24.9023-.4002 1.8833-.5916 2.87-.56h1.15c.0699-.0025.1394.0106.2036.0384.0642.0278.1214.0696.1674.1223.046.0527.0796.115.0985.1823.0188.0674.0224.1381.0105.207L76 16.59zM90.1199 24.2701c-.0938.829-.3594 1.6294-.78 2.35-.3536.6076-.8473 1.1219-1.44 1.5-.6124.382-1.2906.6465-2 .78-.6321.1048-1.2699.1716-1.91.2H81.1799c-.7814.0122-1.5621-.0548-2.33-.2-.6071-.1025-1.1862-.3307-1.7-.67-.4523-.3273-.7997-.7789-1-1.3-.1634-.4955-.2642-1.0095-.3-1.53-.0349-.3725-.0349-.7475 0-1.12l.89-6.24c.0926-.7545.3671-1.4752.8-2.1.4037-.5674.9214-1.0443 1.52-1.4.6198-.3649 1.2955-.6251 2-.77.5548-.1088 1.1159-.1823 1.68-.22h3.13c.7125-.0019 1.4231.0719 2.12.22.5969.1171 1.1646.3516 1.67.69.4591.3224.8331.7513 1.09 1.25.1873.4391.3054.9047.35 1.38.0401.3689.0401.7411 0 1.11l-.98 6.07zm-4.87-7.66h-2.25c-.4412-.014-.8786.0858-1.27.29-.2075.1301-.3686.3227-.46.55-.1181.3558-.2084.7202-.27 1.09l-1 6.46c.0001.1507.0376.2991.1091.4317.0716.1327.175.2455.3009.3283.1908.1197.4062.1949.63.22.372.0402.7459.0602 1.12.06h1.65c.4458.016.8878-.0876 1.28-.3.2108-.1218.3733-.3125.46-.54.116-.3523.203-.7135.26-1.08l1-6.42c.01-.7-.51-1.09-1.56-1.09z" fill="#000"/><path d="M24.92 2.67992L15.11.0799184h-.36c-.2467-.0547941-.502-.0581981-.75-.01-.3666.1260876-.6726.3849676-.8577.7255796-.1851.340612-.2359.738222-.1423 1.114422l.41 3 1.08 7.76998-.06-.08L10 7.79992c-.08958-.11815-.20917-.21014-.34634-.26641-.13717-.05628-.28691-.07478-.43365-.05359-.38811.06529-.74154.26321-1 .56l-3.93 3.95998c-1.08062 1.1946-1.81678 2.66-2.13 4.24l-2.1600039 14.62c-.0880452.6859.0736592 1.3806.4555629 1.9572.381904.5765.958501.9964 1.624441 1.1828l9.80999 2.6c.2275.0643.4639.0913.7.08.2319-.0057.4593-.0648.6647-.1726.2053-.1078.3831-.2615.5194-.4492.1364-.1876.2277-.4041.2669-.6327.0391-.2286.0251-.4632-.041-.6855l-1.53-10.74.06.08 4.47 4.77c.41.49 1.07.44 1.75-.24l3.95-4c1.0806-1.1945 1.8168-2.6599 2.13-4.24L27 5.78992c.0783-.68084-.0878-1.36736-.4688-1.93702s-.952-.98539-1.6112-1.17298zM16.17 24.6799l-3.83-3.43-.34-.33-.1-.72-1.1-8.2 3.83 3.43.28.28.1.72 1.14 8.23.02.02z" fill="#EE5B21"/></g><defs><clipPath id="clip0"><path fill="#fff" d="M0 0h91.09v36.65H0z"/></clipPath></defs></svg>