<svg width="112" height="17" fill="none" xmlns="http://www.w3.org/2000/svg"><g clip-path="url(#a)" fill="#171717"><path d="M8.099 16.296c-2.239 0-4.181-.79-5.762-2.337C.79 12.379 0 10.469 0 8.198c0-2.272.79-4.181 2.337-5.762C3.917.856 5.827.066 8.1.066c2.238 0 4.18.79 5.761 2.37 1.58 1.548 2.37 3.49 2.37 5.762 0 2.271-.79 4.18-2.37 5.76-1.613 1.548-3.523 2.338-5.761 2.338Zm0-2.995c1.415 0 2.633-.461 3.588-1.416.955-.955 1.449-2.173 1.449-3.687 0-1.482-.494-2.733-1.449-3.688-.954-.954-2.173-1.448-3.588-1.448-1.416 0-2.634.494-3.589 1.448-.954.955-1.448 2.173-1.448 3.688 0 1.481.494 2.732 1.448 3.687.955.922 2.14 1.415 3.589 1.415ZM25.087 4.84h3.127l-4.181 11.127h-3.26L16.494 4.84h3.128l2.7 7.77h.033l2.733-7.77ZM30.913 11.588c.363 1.416 1.416 2.107 3.128 2.107 1.087 0 1.943-.362 2.502-1.119l2.305 1.317v.033c-1.087 1.58-2.733 2.37-4.84 2.37-1.843 0-3.325-.56-4.444-1.679-1.12-1.119-1.68-2.535-1.68-4.214 0-1.679.56-3.094 1.647-4.18 1.086-1.153 2.535-1.68 4.247-1.68 1.613 0 2.996.56 4.05 1.68 1.086 1.151 1.612 2.534 1.612 4.18 0 .362-.033.758-.098 1.185h-8.428Zm5.63-2.238c-.329-1.515-1.448-2.239-2.765-2.239-1.548 0-2.568.823-2.93 2.239h5.695ZM45.53 4.774V4.74c-1.02.263-1.876.889-2.304 1.942 0 .033-.033 0-.033 0v-1.81s0-.034-.032-.034h-2.832s-.033 0-.033.033v11.095s0 .033.033.033h2.831s.033 0 .033-.033v-5.3c0-1.087.33-1.844 1.021-2.305.658-.46 1.416-.625 2.239-.56.033 0 .033-.032.033-.032l-.955-2.996ZM60.05 4.708h2.995c.033 0 .033.033.033.033l-3.555 11.226s0 .033-.033.033h-2.7s-.033 0-.033-.033l-2.008-6.65c0-.033-.033-.033-.066 0l-2.008 6.65s0 .033-.033.033h-2.7s-.032 0-.032-.033L46.354 4.741c0-.033 0-.033.033-.033h2.996s.033 0 .033.033l1.91 6.848c0 .032.065.032.065 0l2.008-6.848s0-.033.033-.033H56.1s.033 0 .033.033l2.008 6.848c0 .032.066.032.066 0l1.843-6.881s-.032 0 0 0ZM71.572 4.84h2.864v11.127h-2.864v-1.284h-.033c-.856 1.087-2.074 1.613-3.621 1.613-1.482 0-2.766-.56-3.852-1.679-1.054-1.152-1.58-2.535-1.58-4.18 0-1.647.526-3.03 1.58-4.182 1.086-1.152 2.337-1.712 3.852-1.712 1.547 0 2.732.527 3.621 1.613h.033V4.84Zm-3.094 8.724c.888 0 1.613-.296 2.205-.856.593-.593.89-1.35.89-2.272 0-.922-.297-1.679-.89-2.238-.592-.593-1.317-.89-2.206-.89s-1.613.297-2.205.89c-.593.592-.856 1.35-.856 2.238 0 .922.296 1.68.856 2.272.56.56 1.284.856 2.206.856ZM82.567 7.605h-2.501v4.642c0 1.185.856 1.218 2.501 1.152v2.568c-3.95.428-5.398-.691-5.398-3.753V7.605h-1.91V4.872h1.91V2.634l2.864-.856v3.094h2.502l.032 2.733s.033 0 0 0ZM84.938 14.617c-1.119-1.152-1.679-2.535-1.679-4.18 0-1.647.56-3.062 1.68-4.182 1.151-1.152 2.535-1.679 4.213-1.679 2.173 0 4.083 1.12 5.004 2.864L91.687 8.89c-.461-.922-1.416-1.482-2.535-1.482-1.711 0-2.996 1.284-2.996 3.062 0 .856.297 1.613.856 2.173.56.56 1.284.856 2.14.856 1.152 0 2.107-.56 2.568-1.449l2.47 1.416c-.989 1.745-2.865 2.897-5.038 2.897-1.678-.066-3.094-.625-4.214-1.745ZM104.165 5.761c.79.823 1.218 1.943 1.218 3.391v6.815h-2.865V9.481c0-1.481-.856-2.304-2.205-2.304-1.482 0-2.47.922-2.47 2.765v6.025H94.98V.395h2.864v5.663h.033c.692-1.021 1.811-1.515 3.293-1.515 1.218-.033 2.205.362 2.996 1.218ZM110.485 5.893a2.999 2.999 0 0 1-1.579.428c-.56 0-1.087-.132-1.581-.428a3.224 3.224 0 0 1-1.152-1.152c-.263-.494-.428-1.02-.428-1.58 0-.428.099-.856.263-1.219.165-.395.395-.724.658-1.02.297-.296.626-.494.988-.659A3.12 3.12 0 0 1 108.873 0c.427 0 .823.099 1.218.263.394.165.724.395.987.659.296.296.494.625.659 1.02.164.395.263.79.263 1.218 0 .56-.132 1.087-.428 1.58-.231.462-.592.857-1.087 1.153Zm-3.292-1.02c.461.46 1.054.69 1.713.69.657 0 1.25-.23 1.711-.69.461-.461.691-1.021.691-1.713a2.36 2.36 0 0 0-2.402-2.403c-.659 0-1.252.23-1.713.692-.461.46-.691 1.053-.691 1.711-.033.659.197 1.219.691 1.712Zm1.153-.297h-.659V1.68h1.515c.296 0 .56.099.757.263a.83.83 0 0 1 .296.659c0 .23-.066.428-.164.56a.642.642 0 0 1-.462.296v.033l.758 1.086v.033h-.791l-.69-1.02h-.528l-.032.987s0-.033 0 0Zm0-2.337v.757h.625c.329 0 .494-.132.494-.395 0-.264-.165-.395-.494-.395l-.625.033c0-.033 0-.033 0 0Z"/></g><defs><clipPath id="a"><path fill="#fff" d="M0 0h112v16.448H0z"/></clipPath></defs></svg>