<svg width="174" height="60" fill="none" xmlns="http://www.w3.org/2000/svg"><g clip-path="url(#clip0)"><path d="M3.61 2.58816L36.81.136158c4.078-.35 5.126-.1139997 7.69 1.750002l10.598 7.466c1.748 1.28404 2.33 1.63404 2.33 3.03204v40.946c0 2.566-.932 4.084-4.194 4.316l-38.554 2.334c-2.448.116-3.614-.234-4.896-1.868L1.98 47.9642c-1.4-1.868-1.98-3.266-1.98-4.9V6.66816c0-2.098.932-3.848 3.61-4.08z" fill="#fff"/><path fill-rule="evenodd" clip-rule="evenodd" d="M36.81.136158L3.61 2.58816c-2.678.232-3.61 1.982-3.61 4.08V43.0642c0 1.634.58 3.032 1.98 4.9l7.804 10.148c1.282 1.634 2.448 1.984 4.896 1.868l38.554-2.334c3.26-.232 4.194-1.75 4.194-4.316v-40.946c0-1.326-.524-1.708-2.066-2.84004-.0887-.06392-.1774-.12792-.266-.192L44.5 1.88616C41.936.0221583 40.888-.213842 36.81.136158zM15.552 11.7142c-3.148.212-3.862.26-5.65-1.194L5.356 6.90416c-.462-.468-.23-1.052.934-1.168l31.916-2.332c2.68-.234 4.076.7 5.124 1.516l5.474 3.966c.234.118.816.816.116.816L15.96 11.6862l-.408.028zm-3.67 41.266v-34.76c0-1.518.466-2.218 1.862-2.336l37.856-2.216c1.284-.116 1.864.7 1.864 2.216v34.528c0 1.518-.234 2.802-2.33 2.918l-36.226 2.1c-2.096.116-3.026-.582-3.026-2.45zm35.76-32.896c.232 1.05 0 2.1-1.05 2.22l-1.746.346v25.664c-1.516.816-2.912 1.282-4.078 1.282-1.864 0-2.33-.584-3.726-2.332l-11.418-17.964v17.38l3.612.818s0 2.1-2.914 2.1l-8.034.466c-.234-.468 0-1.634.814-1.866l2.098-.582v-22.98l-2.912-.236c-.234-1.05.348-2.566 1.98-2.684l8.62-.58 11.88 18.196v-16.098l-3.028-.348c-.234-1.286.698-2.22 1.862-2.334l8.04-.468z" fill="#000"/><path d="M82.8681 42.5021v-15.82h.274l11.408 15.82h3.592v-23.248h-3.994v15.804h-.274l-11.408-15.804h-3.606v23.246h4.01l-.002.002zm26.5619.356c5.27 0 8.476-3.448 8.476-9.168 0-5.704-3.222-9.168-8.476-9.168-5.236 0-8.474 3.48-8.474 9.168 0 5.72 3.19 9.168 8.474 9.168zm0-3.352c-2.786 0-4.38-2.126-4.38-5.816 0-3.674 1.594-5.816 4.38-5.816 2.772 0 4.366 2.142 4.366 5.816 0 3.69-1.578 5.816-4.366 5.816zm12.126-18.946v4.43h-2.786v3.19h2.786v9.618c0 3.416 1.612 4.786 5.656 4.786.772 0 1.514-.08 2.094-.194v-3.126c-.484.048-.79.08-1.354.08-1.674 0-2.416-.772-2.416-2.512v-8.652h3.77v-3.19h-3.77v-4.432h-3.98v.002zm10.144 21.942h3.98v-17.626h-3.98v17.626zm1.982-20.54c1.32 0 2.384-1.066 2.384-2.402 0-1.338-1.062-2.418-2.384-2.418-1.304 0-2.384 1.08-2.384 2.418 0 1.336 1.08 2.4 2.384 2.4v.002zm12.916 20.896c5.268 0 8.474-3.448 8.474-9.168 0-5.704-3.222-9.168-8.474-9.168-5.238 0-8.476 3.48-8.476 9.168 0 5.72 3.19 9.168 8.476 9.168zm0-3.352c-2.788 0-4.384-2.126-4.384-5.816 0-3.674 1.596-5.816 4.384-5.816 2.77 0 4.366 2.142 4.366 5.816 0 3.69-1.58 5.816-4.366 5.816zm10.852 2.996h3.996v-10.262c0-2.594 1.5-4.238 3.882-4.238 2.434 0 3.56 1.354 3.56 4.044v10.456h3.998v-11.406c0-4.206-2.144-6.574-6.074-6.574-2.628 0-4.4 1.208-5.238 3.174h-.274v-2.82h-3.85v17.626z" fill="#000"/></g><defs><clipPath id="clip0"><path fill="#fff" d="M0 0h174v60H0z"/></clipPath></defs></svg>