<svg width="92" height="23" fill="none" xmlns="http://www.w3.org/2000/svg"><g clip-path="url(#a)"><path d="M26.46 4.373c0-.977.773-1.762 1.735-1.762.962 0 1.735.785 1.735 1.762s-.773 1.763-1.735 1.763a1.744 1.744 0 0 1-1.735-1.763ZM29.53 8.091h-2.715v10.767h2.715V8.091ZM31.677 8.09h2.489l.226 1.265h.17c.64-.843 1.527-1.495 3.111-1.495 2.527 0 4.13 1.629 4.13 4.464v6.533h-2.716V12.9c0-1.763-1-2.625-2.263-2.625-1.3 0-2.432.843-2.432 2.759v5.843h-2.715V8.09ZM45.049 15.923v-5.652h-2.263V8.087h.717c1.3 0 1.81-.479 1.81-1.628V5.175h2.451v2.931h2.772v2.184h-2.772v5.307c0 .594.15 1.342 1.414 1.342.32 0 .717-.058 1.037-.154v2.088a7.736 7.736 0 0 1-1.866.23c-2.96-.038-3.3-1.992-3.3-3.18ZM65.828 8.089l.245 1.532h.17c.66-1.073 1.376-1.743 3.168-1.743h.754v2.759a7.57 7.57 0 0 0-1.15-.096c-2.339 0-2.942 1.743-2.942 3.295v5.02h-2.715V8.089h2.47ZM70.807 13.453c0-3.314 2.414-5.575 5.6-5.575 3.187 0 5.6 2.28 5.6 5.575 0 3.334-2.394 5.614-5.6 5.614-3.167 0-5.6-2.3-5.6-5.614Zm8.485 0c0-1.782-1.169-3.18-2.904-3.18-1.734 0-2.885 1.398-2.885 3.18 0 1.801 1.151 3.238 2.885 3.238 1.773 0 2.904-1.437 2.904-3.238ZM83.175 15.407h2.621c.151 1.169 1 1.61 2.075 1.61.83 0 1.546-.326 1.546-1.092 0-.824-.717-1.17-1.867-1.457l-1-.248c-1.414-.345-3.035-.92-3.035-3.047 0-2.146 1.866-3.295 3.96-3.295 2.866 0 4.167 1.533 4.317 3.295h-2.601c-.114-.766-.698-1.245-1.698-1.245-.83 0-1.395.402-1.395 1.092 0 .747.716.939 1.735 1.226l.999.25c1.848.478 3.168 1.34 3.168 3.352 0 2.222-1.867 3.219-4.11 3.219-2.999 0-4.564-1.437-4.715-3.66ZM59.242 15.791c-.358.747-1.15 1.15-2.206 1.15-1.64 0-2.621-1.111-2.735-2.644h7.543c.019-.307.038-.537.038-.786 0-3.812-2.395-5.479-4.96-5.479-2.884 0-5.28 2.127-5.28 5.652 0 3.276 2.264 5.422 5.394 5.422 2.074 0 3.639-.843 4.412-2.261l-2.206-1.054Zm-2.3-5.575c1.376 0 2.356.939 2.413 2.26h-5.016c.189-1.283 1.15-2.26 2.602-2.26Z" fill="#060C27"/><path d="M15.65 10.887v4.138a.13.13 0 0 1-.132.134h-2.3a.13.13 0 0 1-.132-.134v-4.138c-.019-1.15-.943-2.088-2.093-2.088S8.9 9.757 8.9 10.906v4.1c0 .077-.076.153-.151.153H6.486a.15.15 0 0 1-.15-.153v-4.138c0-.268.037-.537.075-.786a.296.296 0 0 1 .15-.21 5.59 5.59 0 0 0 2.678-3.2c.038-.077.094-.153.17-.172a4.386 4.386 0 0 1 1.584-.288c2.564-.019 4.638 2.089 4.657 4.675Z" fill="#1D47F3"/><path d="M12.69.138a10.633 10.633 0 0 0-4.752.306c-.132.039-.188.23-.075.326a5.59 5.59 0 0 1 1.244 1.897c.038.096.114.134.208.115a7.98 7.98 0 0 1 3.432.019c3.752.824 6.543 4.196 6.656 8.085.15 4.847-3.677 8.851-8.429 8.851-4.62 0-8.41-3.831-8.41-8.564 0-.153 0-.306.02-.44a.335.335 0 0 0-.265-.364A5.262 5.262 0 0 1 .453 9.41c-.132-.096-.302-.02-.34.134A11.615 11.615 0 0 0 0 11.173c0 6.17 4.94 11.17 10.993 11.17 6.449 0 11.615-5.671 10.937-12.358-.51-5-4.356-9.1-9.24-9.847Z" fill="#1D47F3"/><path d="M1.98 4.813c0-1.207.96-2.184 2.149-2.184 1.188 0 2.15.977 2.15 2.184 0 1.207-.962 2.184-2.15 2.184s-2.15-.977-2.15-2.184Z" fill="#1D47F3"/></g><defs><clipPath id="a"><path fill="#fff" d="M0 0h92v22.343H0z"/></clipPath></defs></svg>