<svg width="125" height="24" fill="none" xmlns="http://www.w3.org/2000/svg"><path fill-rule="evenodd" clip-rule="evenodd" d="M10.249 20.707C4.589 20.707 0 16.107 0 10.432 0 4.758 4.589.158 10.249.158c3.277 0 6.194 1.542 8.07 3.94a.766.766 0 00-.44.693.767.767 0 01-.768.766h-.58a.791.791 0 00-.792.79c0 .436.354.79.792.79h3.428c.16.472.286.96.376 1.46a.756.756 0 01-.26.046h-.064c-.43 0-.78.348-.78.777v.049a.73.73 0 01-.73.728.73.73 0 01-.73-.728V9.42a.778.778 0 00-.78-.777c-.43 0-.779.348-.779.777v.049a.73.73 0 01-.73.728.73.73 0 00-.73.728v.048c0 .43.35.777.78.777.431 0 .782.349.782.779v.105c0 .401.326.726.728.726.403 0 .729.325.729.726v1.548a.778.778 0 00.815.776 10.228 10.228 0 01-8.337 4.297zM14.857 3.4a.778.778 0 00-.779-.777h-1.293c-.47 0-.85.379-.85.847v1.19a.73.73 0 00.731.728h.123a.607.607 0 00.607-.606c0-.335.273-.606.608-.606h.123a.73.73 0 00.73-.728v-.048zM4.181 4.722c0-.384.313-.696.699-.696H9.76c.47 0 .85.379.85.847v1.402c0 .353.286.638.64.638.353 0 .64.286.64.638v.618a.663.663 0 01-.664.662.663.663 0 00-.664.662v.02a.684.684 0 01-.685.684h-.046a.73.73 0 00-.73.728v.048a.778.778 0 01-.78.777h-.097a.778.778 0 01-.779-.777.778.778 0 00-.78-.776.778.778 0 01-.778-.777v-.774c0-.002 0-.003.002-.003a.002.002 0 00.002-.002v-.774a.777.777 0 00-.778-.776H3.902a.837.837 0 01-.84-.836v-.279c0-.308.251-.557.56-.557.309 0 .56-.25.56-.557v-.14zm5.671 6.688c-.43 0-.779.348-.779.777v.097c0 .375.305.68.682.68a.68.68 0 01.682.679v2.41c0 .01.007.017.017.017.01 0 .017.008.017.017v1.52c0 .009-.008.016-.017.016a.017.017 0 00-.017.017v.76c0 .43.349.777.779.777h.028a.75.75 0 00.751-.749v-.742c0-.004.003-.007.007-.007a.006.006 0 00.006-.006v-.881c0-.399.325-.722.724-.722.4 0 .724-.323.724-.722v-.055c0-.429.35-.776.78-.776a.778.778 0 100-1.553.778.778 0 01-.78-.777.778.778 0 00-.779-.777H9.852z" fill="#000"/><path d="M32.166 18.32V.96h2.39v17.36h-2.39zM50.11 12.144c0 1.252-.279 2.362-.836 3.332a5.956 5.956 0 01-2.229 2.252c-.928.547-1.973.82-3.134.82-1.16 0-2.213-.273-3.157-.82a6.13 6.13 0 01-2.252-2.252c-.542-.97-.813-2.08-.813-3.332 0-1.25.271-2.354.813-3.308a6.079 6.079 0 012.252-2.275c.944-.548 1.996-.821 3.157-.821 1.16 0 2.206.273 3.134.82a5.908 5.908 0 012.229 2.276c.557.954.836 2.057.836 3.308zm-2.438 0c.016-.829-.147-1.556-.488-2.181-.325-.642-.773-1.134-1.346-1.478a3.548 3.548 0 00-1.927-.54c-.712 0-1.362.18-1.95.54-.573.344-1.03.836-1.37 1.478-.325.625-.48 1.352-.464 2.181-.016.814.14 1.54.464 2.182.34.626.797 1.118 1.37 1.478.588.36 1.238.54 1.95.54s1.354-.18 1.927-.54a3.746 3.746 0 001.346-1.478c.34-.641.504-1.368.488-2.182zM54.949 12.144c0 .814.178 1.54.533 2.182a4.436 4.436 0 001.44 1.502c.603.36 1.246.54 1.927.54.774 0 1.447-.204 2.02-.61.572-.407 1.036-.83 1.392-1.268l1.324 1.643c-.294.422-.697.82-1.208 1.196-.51.36-1.09.657-1.74.891a6.355 6.355 0 01-2.044.329c-1.114 0-2.12-.282-3.018-.845a6.082 6.082 0 01-2.136-2.299c-.51-.97-.766-2.056-.766-3.26 0-1.22.256-2.308.767-3.262a6.082 6.082 0 012.135-2.299c.898-.563 1.904-.844 3.018-.844 1.13 0 2.136.234 3.018.704.882.453 1.54 1.047 1.974 1.782L62.26 9.87c-.356-.532-.867-.986-1.532-1.361-.65-.391-1.284-.586-1.904-.586-.727 0-1.385.187-1.973.563-.588.36-1.052.86-1.393 1.501-.34.626-.51 1.345-.51 2.158zM77.907 5.998v12.316h-2.414v-1.9c-.372.516-.921 1.001-1.648 1.454-.728.454-1.572.68-2.531.68a5.088 5.088 0 01-2.81-.82c-.835-.548-1.5-1.306-1.996-2.276-.495-.97-.743-2.08-.743-3.331s.256-2.354.766-3.308c.511-.97 1.215-1.72 2.113-2.252.898-.548 1.92-.821 3.064-.821.852 0 1.595.187 2.23.563.65.375 1.168.813 1.555 1.314v-1.62h2.414zM71.871 16.32c.743 0 1.393-.18 1.95-.54.557-.375.99-.875 1.3-1.5.31-.642.464-1.361.464-2.16 0-.781-.154-1.485-.464-2.11a3.64 3.64 0 00-1.3-1.479c-.557-.375-1.207-.563-1.95-.563-.712 0-1.346.18-1.904.54a3.64 3.64 0 00-1.3 1.478c-.31.626-.464 1.337-.464 2.135 0 .797.155 1.517.464 2.158.31.626.743 1.126 1.3 1.502.558.36 1.192.54 1.904.54zM81.94 18.32V.96h2.39v17.36h-2.39zM90.146 23.699l1.997-4.622.07-.164-5.665-12.926h2.786l3.807 9.055c.046.094.093.211.14.352.046.14.1.297.162.47.062-.173.116-.337.163-.494.061-.171.123-.336.185-.492l3.18-8.891h2.833l-5.015 12.316-2.066 5.396h-2.577zM110.807 16.215v2.088h-9.031v-2.018l6.083-8.21h-6.083V5.987h8.892v1.97l-6.106 8.258h6.245zM124.464 16.688h-.024c-.495.485-1.176.915-2.043 1.29a6.76 6.76 0 01-2.716.564c-1.269 0-2.391-.266-3.366-.798a5.958 5.958 0 01-2.252-2.229c-.542-.954-.812-2.033-.812-3.237 0-1.377.286-2.55.859-3.52.572-.985 1.331-1.735 2.275-2.251a6.184 6.184 0 013.087-.798c1.022 0 1.951.258 2.786.774a5.481 5.481 0 011.997 2.088c.495.892.743 1.932.743 3.12l-.024 1.032h-9.332c.139 1.11.588 1.995 1.346 2.651.774.642 1.749.962 2.926.962.851 0 1.539-.156 2.066-.469.526-.328.959-.641 1.3-.938l1.184 1.76zm-4.992-8.75c-.913 0-1.71.219-2.391.657-.681.422-1.13 1.157-1.346 2.205h6.825v-.164a2.648 2.648 0 00-.534-1.408 2.951 2.951 0 00-1.114-.938 3.065 3.065 0 00-1.44-.352z" fill="#000"/></svg>