<svg width="122" height="54" fill="none" xmlns="http://www.w3.org/2000/svg"><path d="M79.097 40.601c-.715.37-1.395.727-2.087 1.05-.104.045-.346-.024-.415-.128-1.36-1.787-3.17-2.386-5.303-1.879-2.168.53-3.425 2.03-3.932 4.162-.623 2.583.415 5.246 2.479 6.514 2.306 1.407 5.165.853 6.767-1.314.047-.058.104-.115.196-.22.75.381 1.488.762 2.237 1.142-1.153 2.352-4.07 3.978-7.586 3.54-3.793-.473-6.63-3.355-7.033-7.195-.427-4.115 1.706-7.574 5.43-8.808 3.632-1.222 7.356.012 9.247 3.136zM14.741 40.601c-.715.369-1.395.726-2.087 1.05-.103.045-.345-.024-.415-.116-1.43-1.868-3.32-2.444-5.522-1.822-2.248.646-3.424 2.295-3.805 4.543-.426 2.467.634 4.911 2.594 6.099 2.364 1.418 5.015.841 6.93-1.545.749.38 1.51.76 2.27 1.153-1.487 2.686-4.588 4.127-8.208 3.424-3.666-.715-6.26-3.69-6.48-7.39-.242-4.128 1.914-7.413 5.638-8.578 3.574-1.141 7.171.104 9.085 3.182zM107.77 43.114v-5.822c.784 0 1.533-.011 2.259.012.07 0 .173.173.208.276.035.127.011.266.011.404v14.573c0 .207-.011.415-.023.657h-2.444V51.75c-.173.138-.253.184-.311.242-2.179 2.513-6.825 2.029-8.128-1.833-.68-2.006-.657-4.024.265-5.95 1.51-3.147 5.396-3.758 7.828-1.256.07.07.093.173.139.254.069-.035.127-.058.196-.093zm.011 4.382c0-.635.012-1.269 0-1.903 0-.184-.011-.403-.115-.542-1.026-1.406-3.447-2.063-4.946-.692-1.141 1.05-1.36 2.41-1.176 3.863.161 1.314.749 2.41 2.041 2.905 1.314.507 2.524.161 3.608-.68.415-.323.657-.703.611-1.28-.069-.553-.023-1.118-.023-1.672zM46.285 48.28c.127 1.268.68 2.201 1.73 2.743 1.855.957 3.573.485 5.257-.726.345.496.703 1.003 1.095 1.58-.265.207-.473.415-.727.564-2.202 1.303-4.508 1.522-6.825.427-3.02-1.43-4.081-5.546-2.306-8.612 1.638-2.813 5.454-3.747 8.128-1.937 2.076 1.406 2.606 3.528 2.56 5.96h-8.913zm6.456-1.764c0-1.788-1.383-3.079-3.228-3.079-1.798 0-3.217 1.338-3.217 3.079h6.445zM31.724 48.28h-8.936c.07 1.187.588 2.087 1.545 2.64 1.903 1.107 3.69.622 5.43-.611.346.507.692 1.003 1.096 1.58-.3.23-.554.472-.865.645-2.017 1.141-4.15 1.372-6.318.519-2.986-1.188-4.346-4.75-3.101-7.944.968-2.467 3.343-3.931 5.983-3.666 2.64.265 4.531 2.064 4.981 4.808.115.634.127 1.29.184 2.029zm-2.502-1.764c.104-1.73-1.395-3.113-3.298-3.078-1.764.034-3.24 1.487-3.1 3.078h6.398zM89.98 53.225h-2.444c-.023-.357-.046-.703-.07-1.141-.207.161-.345.265-.495.38-1.81 1.465-4.67 1.407-6.191-.138-1.141-1.153-1.303-2.548-.807-4 .519-1.522 1.776-2.168 3.286-2.318 1.487-.15 2.87.173 4 1.234.035.034.093.034.162.069 0-.715.092-1.43-.023-2.11-.15-.934-1.026-1.533-2.18-1.637a4.58 4.58 0 00-3.297.934c-.184.138-.357.277-.588.461l-.991-1.672c1.407-1.337 3.078-1.902 4.946-1.856.68.012 1.383.115 2.04.323 1.522.461 2.456 1.533 2.572 3.124.103 1.568.069 3.148.08 4.727.012 1.176 0 2.364 0 3.62zm-2.49-3.4c.046-.6.058-1.108-.496-1.477-1.06-.703-2.19-.887-3.39-.484-.887.3-1.371 1.038-1.348 1.937.011.865.507 1.545 1.383 1.856.934.335 1.856.243 2.744-.138.738-.323 1.35-.772 1.107-1.695zM112.762 49.997c1.118.934 2.329 1.522 3.747 1.568a5.336 5.336 0 001.533-.196c.531-.138.899-.507.946-1.106.046-.6-.277-1.015-.784-1.222-.669-.266-1.384-.439-2.076-.658-.784-.242-1.602-.426-2.352-.75-2.363-1.025-2.156-4-.541-5.222.795-.6 1.694-.876 2.663-.968 1.879-.196 4.012.473 5.084 1.637-.311.53-.634 1.06-.98 1.66-1.141-1.038-2.456-1.464-3.943-1.303-.403.047-.841.173-1.176.392-.68.427-.68 1.326.023 1.695.611.323 1.326.484 1.995.703.911.3 1.868.485 2.721.9 2.19 1.072 2.386 4.035.403 5.465-.934.68-2.029.91-3.159.933-1.752.046-3.389-.322-4.819-1.418-.323-.242-.415-.438-.138-.795.311-.392.565-.853.853-1.315zM31.666 41.708c.795 0 1.556-.023 2.317.023.162.012.37.288.45.484.98 2.48 1.937 4.97 2.905 7.46.08.196.161.38.288.691.127-.3.22-.472.289-.668.968-2.49 1.948-4.97 2.893-7.46.15-.403.358-.565.796-.541.645.034 1.303.011 2.052.011-.08.23-.127.404-.196.565-1.418 3.505-2.86 6.998-4.266 10.514-.15.358-.323.508-.715.485-.587-.035-1.187.011-1.786-.023-.185-.012-.439-.162-.508-.312a1805.258 1805.258 0 01-4.462-10.93c-.034-.08-.034-.16-.057-.299zM18.43 37.327v15.887h-2.386V37.327h2.386zM59.232 53.225h-2.433V41.742h2.421v1.65c1.107-1.13 2.214-1.926 3.759-1.926v2.386c-1.05-.138-1.983.116-2.86.669-.599.38-.933.853-.91 1.649.058 2.133.023 4.265.023 6.387v.668zM92.31 41.731h2.409v1.672c1.107-1.142 2.225-1.926 3.758-1.937v2.34c-.426.023-.865-.034-1.245.093-.646.218-1.28.507-1.868.841-.46.254-.645.68-.634 1.257.035 2.19.012 4.38.012 6.56v.657h-2.433V41.731zM67.161 3.791c-.069.45-.092.865-.207 1.246-.046.138-.334.265-.507.265-1.418.023-2.848.011-4.266.011H49.787c-1.637 0-2.456.819-2.456 2.433v13.777c0 1.58.842 2.41 2.433 2.41h22.424c1.568 0 2.387-.819 2.387-2.375V14.41v-.704c.541-.034 1.014-.069 1.452-.103.046.057.07.069.07.08 0 2.848.092 5.684-.023 8.52-.081 1.926-1.718 3.252-3.736 3.263-2.248.012-4.496 0-6.744 0h-15.91c-1.926 0-3.379-1.095-3.77-2.836-.07-.3-.093-.611-.093-.91 0-4.75-.011-9.49 0-14.24 0-2.132 1.545-3.723 3.643-3.735 5.788-.023 11.564-.011 17.352-.011.08.034.172.046.345.057z" fill="#000"/><path d="M80.408 5.325c.012 2.294-.668 3.839-2.086 5.015-2.168 1.81-5.27 1.649-7.264-.369-2.42-2.444-2.213-6.63.473-8.739 1.74-1.372 3.69-1.614 5.684-.646 2.133 1.026 3.124 2.848 3.193 4.739zm-6.04-.507c0 .726-.024 1.452.01 2.167.012.392-.103.576-.518.53-.265-.034-.519.012-.473.38.035.289 0 .635.473.623.75-.023 1.499-.011 2.248 0 .323.012.45-.126.427-.45-.012-.264.034-.576-.38-.553-.416.035-.462-.207-.45-.542.011-1.106.011-2.225 0-3.331 0-.243-.104-.692-.185-.692-.357-.012-.784-.012-1.072.173-.45.276-.819.691-1.2 1.072-.115.115-.23.369-.184.461.104.173.323.37.508.38.23.024.484-.115.795-.218z" fill="#804D95"/><path d="M45.014 7.446c0 .415.035.819-.012 1.21-.011.139-.196.3-.345.358-1.58.565-2.34 1.822-2.053 3.47.807 4.6 1.603 9.189 2.422 13.79.345 1.948 1.74 2.893 3.677 2.547 3.932-.692 7.863-1.395 11.806-2.087a4.03 4.03 0 01.75-.069h7.436c.15 0 .3.012.461.104-1.222.219-2.444.438-3.666.646-5.638.991-11.264 2.006-16.913 2.963a4.288 4.288 0 01-4.947-3.402c-.553-2.743-1.003-5.522-1.487-8.277-.369-2.122-.76-4.232-1.095-6.365-.357-2.248 1.326-4.519 3.574-4.9.104 0 .22.012.392.012zM66.308 14.375c0 2.04-.53 3.943-1.58 5.695-.15.243-.472.473-.737.508-.484.069-.75-.38-.553-.842.126-.277.276-.553.403-.83 1.464-3.032 1.464-6.064 0-9.085-.127-.254-.254-.519-.392-.772-.173-.323-.138-.611.173-.796.323-.207.669-.184.922.127.127.15.22.311.312.484.957 1.718 1.452 3.551 1.452 5.511z" fill="#000"/><path d="M62.031 14.202a7.42 7.42 0 00-.888-3.424 8.618 8.618 0 01-.23-.461c-.173-.346-.23-.68.161-.9.404-.218.75-.115.992.277a8.702 8.702 0 011.233 3.263c.3 1.902-.034 3.7-.899 5.407-.127.254-.265.565-.496.692-.23.138-.634.196-.853.08-.15-.08-.207-.53-.15-.772.092-.38.392-.715.496-1.095.3-1.003.542-2.018.796-3.032-.047-.012-.104-.023-.162-.035zM60.51 14.237c.022 1.199-.324 2.306-.958 3.32-.207.335-.484.565-.91.404-.347-.138-.53-.392-.37-.773.07-.161.15-.31.231-.46.865-1.638.865-3.264 0-4.912-.208-.404-.542-.83.023-1.2.404-.264.807-.034 1.164.6.554.934.842 1.937.82 3.02zM57.685 14.225a3.413 3.413 0 01-.727 2.19c-.253.335-.588.531-.991.278-.415-.266-.37-.635-.115-.992.668-.968.657-1.925 0-2.882-.254-.358-.3-.727.115-.992s.738-.046.991.277c.485.611.727 1.326.727 2.121z" fill="#000"/><path d="M74.367 4.817c-.311.093-.565.243-.807.22-.184-.012-.404-.208-.507-.381-.058-.092.069-.346.184-.461.38-.38.75-.796 1.2-1.072.287-.185.714-.185 1.071-.173.07 0 .173.45.185.691a107.27 107.27 0 010 3.332c0 .335.035.565.45.542.415-.034.368.277.38.554.023.31-.104.45-.427.45-.749-.012-1.498-.024-2.248 0-.484.01-.438-.324-.472-.623-.047-.37.207-.415.472-.38.415.045.53-.14.519-.531-.023-.715 0-1.43 0-2.168z" fill="#fff"/></svg>