<svg width="157" height="40" fill="none" xmlns="http://www.w3.org/2000/svg"><g clip-path="url(#clip0)" fill-rule="evenodd" clip-rule="evenodd" fill="#000"><path d="M28.524 1.928l-9.488 22.18-9.487-22.18H0l16.077 37.59h5.92l16.075-37.59h-9.548zm13.886 37.59h9.638V1.928H42.41v37.59zM110.386.635c3.518 0 6.832.886 9.929 2.65 3.099 1.766 5.518 4.165 7.254 7.19 1.74 3.03 2.61 6.3 2.61 9.809a19.7 19.7 0 01-2.625 9.909c-1.75 3.074-4.136 5.476-7.153 7.207-3.02 1.732-6.346 2.6-9.978 2.6-5.354 0-9.92-1.912-13.706-5.73-3.787-3.818-5.675-8.458-5.675-13.92 0-5.847 2.135-10.72 6.413-14.622 3.748-3.394 8.061-5.093 12.93-5.093h.001zm.204 8.9c-2.867 0-5.254 1.015-7.162 3.047-1.905 2.032-2.858 4.631-2.858 7.798 0 3.259.942 5.898 2.828 7.918 1.885 2.019 4.27 3.03 7.16 3.03 2.89 0 5.295-1.02 7.21-3.064 1.92-2.043 2.882-4.67 2.882-7.884 0-3.212-.946-5.825-2.828-7.831-1.886-2.009-4.295-3.013-7.232-3.013M135.609 1.549h8.28v3.298c1.693-1.549 3.206-2.893 5.178-3.706 1.995-.817 5.162-1.182 7.408.091v6.843c-2.13-.43-4.82.215-6.116.805-2.139.972-3.178 2.053-3.903 3.378-.98 1.791-1.466 4.59-1.466 9.832l.034 1.826v15.168h-9.416V1.549M69.111 31.05L81.075 9.43h-6.297L57.693 39.037h31.196l.01-7.996-19.788.009z"/><path d="M71.1 30.05h6.628L93.657.55H60.919v7.892l22.15-.007-11.97 21.614z"/></g><defs><clipPath id="clip0"><path fill="#fff" d="M0 0h157v40H0z"/></clipPath></defs></svg>